<svg width="387" height="54" viewBox="0 0 387 54" fill="none" xmlns="http://www.w3.org/2000/svg">
<path d="M21.8 43.172C17.88 43.172 14.3147 42.2387 11.104 40.372C7.89333 38.5053 5.37333 35.9293 3.544 32.644C1.71467 29.3587 0.8 25.6813 0.8 21.612C0.8 17.5427 1.696 13.8653 3.488 10.58C5.31733 7.29466 7.8 4.73733 10.936 2.908C14.1093 1.04133 17.6747 0.107998 21.632 0.107998C24.5067 0.107998 27.1387 0.611999 29.528 1.62C31.9173 2.59066 33.9333 3.916 35.576 5.596C37.256 7.23867 38.4693 9.068 39.216 11.084L32.44 14.332C31.6187 12.1293 30.256 10.3747 28.352 9.068C26.4853 7.724 24.2453 7.052 21.632 7.052C19.056 7.052 16.76 7.668 14.744 8.9C12.728 10.0947 11.16 11.7933 10.04 13.996C8.95733 16.1987 8.416 18.7373 8.416 21.612C8.416 24.4867 8.976 27.044 10.096 29.284C11.2533 31.4867 12.84 33.204 14.856 34.436C16.9093 35.6307 19.224 36.228 21.8 36.228C23.928 36.228 25.888 35.7987 27.68 34.94C29.5093 34.0813 30.9467 32.868 31.992 31.3C33.0747 29.732 33.616 27.9213 33.616 25.868V25.7H21.632V19.26H41.232V23.46C41.232 27.604 40.3173 31.1693 38.488 34.156C36.696 37.1053 34.3067 39.3453 31.32 40.876C28.3707 42.4067 25.1973 43.172 21.8 43.172ZM47.2586 0.779996H62.8266C65.6639 0.779996 68.1839 1.30266 70.3866 2.348C72.5892 3.356 74.2879 4.84933 75.4826 6.828C76.7146 8.80666 77.3306 11.1773 77.3306 13.94C77.3306 16.6653 76.7146 19.0173 75.4826 20.996C74.2506 22.9747 72.5332 24.4867 70.3306 25.532C68.1652 26.5773 65.6639 27.1 62.8266 27.1H54.8746V42.5H47.2586V0.779996ZM62.9386 20.38C64.9919 20.38 66.6346 19.8013 67.8666 18.644C69.0986 17.4493 69.7146 15.8813 69.7146 13.94C69.7146 11.9987 69.0986 10.4493 67.8666 9.292C66.6346 8.09733 64.9919 7.5 62.9386 7.5H54.8746V20.38H62.9386ZM99.6431 43.172C96.4697 43.172 93.6324 42.5 91.1311 41.156C88.6297 39.812 86.6697 37.964 85.2511 35.612C83.8324 33.2227 83.1231 30.5533 83.1231 27.604V0.779996H90.7391V27.212C90.7391 29.8627 91.5604 32.028 93.2031 33.708C94.8831 35.388 97.0297 36.228 99.6431 36.228C102.256 36.228 104.384 35.388 106.027 33.708C107.707 32.028 108.547 29.8627 108.547 27.212V0.779996H116.163V27.604C116.163 30.5533 115.454 33.2227 114.035 35.612C112.616 37.964 110.656 39.812 108.155 41.156C105.654 42.5 102.816 43.172 99.6431 43.172Z" fill="url(#paint0_linear_521_69519)"/>
<path d="M153.32 43.172C149.4 43.172 145.853 42.2387 142.68 40.372C139.506 38.5053 137.005 35.9293 135.176 32.644C133.384 29.3587 132.488 25.6813 132.488 21.612C132.488 17.5427 133.384 13.8653 135.176 10.58C137.005 7.29466 139.488 4.73733 142.624 2.908C145.797 1.04133 149.362 0.107998 153.32 0.107998C156.194 0.107998 158.826 0.611999 161.216 1.62C163.605 2.59066 165.621 3.916 167.264 5.596C168.944 7.23867 170.157 9.068 170.904 11.084L164.072 14.276C163.25 12.1107 161.888 10.3747 159.984 9.068C158.08 7.724 155.858 7.052 153.32 7.052C150.744 7.052 148.448 7.668 146.432 8.9C144.416 10.0947 142.848 11.7933 141.728 13.996C140.645 16.1987 140.104 18.7373 140.104 21.612C140.104 24.4867 140.645 27.044 141.728 29.284C142.848 31.4867 144.416 33.204 146.432 34.436C148.448 35.6307 150.744 36.228 153.32 36.228C155.858 36.228 158.08 35.5747 159.984 34.268C161.888 32.924 163.25 31.1693 164.072 29.004L170.904 32.196C170.157 34.212 168.944 36.06 167.264 37.74C165.621 39.3827 163.605 40.708 161.216 41.716C158.826 42.6867 156.194 43.172 153.32 43.172ZM190.82 43.172C187.87 43.172 185.164 42.4813 182.7 41.1C180.236 39.7187 178.276 37.8147 176.82 35.388C175.401 32.9613 174.692 30.2547 174.692 27.268C174.692 24.2813 175.401 21.5747 176.82 19.148C178.238 16.7213 180.18 14.8173 182.644 13.436C185.108 12.0547 187.833 11.364 190.82 11.364C193.769 11.364 196.457 12.0547 198.884 13.436C201.348 14.8173 203.289 16.7213 204.708 19.148C206.164 21.5747 206.892 24.2813 206.892 27.268C206.892 30.292 206.164 33.0173 204.708 35.444C203.289 37.8707 201.348 39.7747 198.884 41.156C196.42 42.5 193.732 43.172 190.82 43.172ZM182.308 27.268C182.308 29.9187 183.092 32.1213 184.66 33.876C186.265 35.5933 188.318 36.452 190.82 36.452C192.425 36.452 193.862 36.06 195.132 35.276C196.401 34.492 197.39 33.4093 198.1 32.028C198.846 30.6093 199.22 29.0227 199.22 27.268C199.22 25.5507 198.846 24.0013 198.1 22.62C197.39 21.2013 196.401 20.1 195.132 19.316C193.862 18.4947 192.425 18.084 190.82 18.084C189.177 18.084 187.702 18.4947 186.396 19.316C185.126 20.1 184.118 21.1827 183.372 22.564C182.662 23.9453 182.308 25.5133 182.308 27.268ZM212.455 12.036H219.343V15.844C220.127 14.388 221.247 13.2867 222.703 12.54C224.196 11.756 225.914 11.364 227.855 11.364C229.871 11.364 231.719 11.812 233.399 12.708C235.079 13.5667 236.367 14.7613 237.263 16.292C238.271 14.6493 239.578 13.4173 241.183 12.596C242.826 11.7747 244.674 11.364 246.727 11.364C248.855 11.364 250.778 11.8493 252.495 12.82C254.212 13.7907 255.556 15.1533 256.527 16.908C257.498 18.6627 257.983 20.66 257.983 22.9V42.5H250.647V24.636C250.647 22.62 250.106 21.0333 249.023 19.876C247.978 18.6813 246.559 18.084 244.767 18.084C243.012 18.084 241.594 18.6813 240.511 19.876C239.428 21.0707 238.887 22.6573 238.887 24.636V42.5H231.551V24.636C231.551 22.62 231.01 21.0333 229.927 19.876C228.882 18.6813 227.463 18.084 225.671 18.084C223.916 18.084 222.498 18.6813 221.415 19.876C220.332 21.0707 219.791 22.6573 219.791 24.636V42.5H212.455V12.036ZM264.189 12.036H271.077V15.62C272.197 14.276 273.579 13.2307 275.221 12.484C276.901 11.7373 278.787 11.364 280.877 11.364C283.715 11.364 286.309 12.0733 288.661 13.492C291.013 14.8733 292.861 16.7773 294.205 19.204C295.549 21.6307 296.221 24.3187 296.221 27.268C296.221 30.2173 295.549 32.9053 294.205 35.332C292.861 37.7587 291.013 39.6813 288.661 41.1C286.347 42.4813 283.733 43.172 280.821 43.172C278.955 43.172 277.219 42.8733 275.613 42.276C274.008 41.6413 272.645 40.7453 271.525 39.588V53.7H264.189V12.036ZM271.525 27.268C271.525 29.0227 271.88 30.6093 272.589 32.028C273.336 33.4093 274.344 34.492 275.613 35.276C276.92 36.06 278.376 36.452 279.981 36.452C282.483 36.452 284.536 35.5933 286.141 33.876C287.784 32.1213 288.605 29.9187 288.605 27.268C288.605 25.5507 288.232 24.0013 287.485 22.62C286.739 21.2013 285.712 20.1 284.405 19.316C283.099 18.4947 281.624 18.084 279.981 18.084C278.376 18.084 276.92 18.476 275.613 19.26C274.344 20.044 273.336 21.1453 272.589 22.564C271.88 23.9453 271.525 25.5133 271.525 27.268ZM312.678 43.172C309.132 43.172 306.332 42.0333 304.278 39.756C302.225 37.4787 301.198 34.4547 301.198 30.684V12.036H308.534V30.068C308.534 31.972 309.094 33.5213 310.214 34.716C311.372 35.8733 312.865 36.452 314.694 36.452C316.524 36.452 317.998 35.8547 319.118 34.66C320.276 33.4653 320.854 31.8787 320.854 29.9V12.036H328.19V42.5H321.246V38.86C320.425 40.2787 319.268 41.3613 317.774 42.108C316.318 42.8173 314.62 43.172 312.678 43.172ZM348.898 42.836C345.463 42.836 342.794 41.9027 340.89 40.036C339.023 38.132 338.09 35.4627 338.09 32.028V18.588H332.826V12.036H333.386C334.879 12.036 336.036 11.644 336.858 10.86C337.679 10.076 338.09 8.93733 338.09 7.444V5.092H345.426V12.036H352.426V18.588H345.426V31.636C345.426 34.8093 347.143 36.396 350.578 36.396C351.175 36.396 351.828 36.34 352.538 36.228V42.556C351.343 42.7427 350.13 42.836 348.898 42.836ZM372.317 43.172C369.256 43.172 366.53 42.4627 364.141 41.044C361.789 39.6253 359.941 37.7027 358.597 35.276C357.29 32.8493 356.637 30.1613 356.637 27.212C356.637 24.2253 357.29 21.5373 358.597 19.148C359.941 16.7213 361.752 14.8173 364.029 13.436C366.344 12.0547 368.92 11.364 371.757 11.364C374.818 11.364 377.469 12.036 379.709 13.38C381.949 14.6867 383.648 16.4787 384.805 18.756C386 21.0333 386.597 23.5347 386.597 26.26C386.597 27.5293 386.466 28.556 386.205 29.34H364.253C364.477 31.58 365.336 33.372 366.829 34.716C368.322 36.06 370.17 36.732 372.373 36.732C374.016 36.732 375.416 36.396 376.573 35.724C377.768 35.0147 378.72 34.044 379.429 32.812L385.365 35.724C384.432 37.964 382.789 39.7747 380.437 41.156C378.085 42.5 375.378 43.172 372.317 43.172ZM378.757 23.74C378.57 21.8733 377.842 20.3613 376.573 19.204C375.304 18.0093 373.698 17.412 371.757 17.412C369.89 17.412 368.304 17.972 366.997 19.092C365.69 20.1747 364.832 21.724 364.421 23.74H378.757Z" fill="black"/>
<defs>
<linearGradient id="paint0_linear_521_69519" x1="203.299" y1="20" x2="11.759" y2="42.7044" gradientUnits="userSpaceOnUse">
<stop stop-color="#0C9CD1"/>
<stop offset="1" stop-color="#123BCE"/>
</linearGradient>
</defs>
</svg>
