<svg width="762" height="62" viewBox="0 0 762 62" fill="none" xmlns="http://www.w3.org/2000/svg">
<path d="M23.2045 49.768C18.7672 49.768 14.7778 48.7227 11.2365 46.632C7.73783 44.4987 4.98583 41.576 2.9805 37.864C1.01783 34.1093 0.0365 29.8853 0.0365 25.192C0.0365 20.4987 1.01783 16.2747 2.9805 12.52C4.98583 8.76533 7.73783 5.84266 11.2365 3.752C14.7778 1.61867 18.7672 0.551998 23.2045 0.551998C26.2765 0.551998 29.1138 1.128 31.7165 2.28C34.3192 3.38933 36.5165 4.86133 38.3085 6.696C40.1432 8.488 41.4658 10.408 42.2765 12.456L37.4765 14.568C36.2392 11.7093 34.3832 9.46933 31.9085 7.848C29.4338 6.184 26.5325 5.352 23.2045 5.352C19.7058 5.352 16.5912 6.184 13.8605 7.848C11.1298 9.512 8.9965 11.8587 7.4605 14.888C5.9245 17.8747 5.1565 21.3093 5.1565 25.192C5.1565 29.0747 5.9245 32.5307 7.4605 35.56C8.9965 38.5467 11.1298 40.872 13.8605 42.536C16.5912 44.1573 19.7058 44.968 23.2045 44.968C26.5325 44.968 29.4338 44.1573 31.9085 42.536C34.3832 40.9147 36.2392 38.6747 37.4765 35.816L42.2765 37.928C41.4658 39.976 40.1432 41.9173 38.3085 43.752C36.5165 45.544 34.3192 46.9947 31.7165 48.104C29.1138 49.2133 26.2765 49.768 23.2045 49.768ZM66.1795 49.768C62.9795 49.768 60.0355 49 57.3475 47.464C54.7022 45.8853 52.5902 43.7307 51.0115 41C49.4755 38.2267 48.7075 35.1547 48.7075 31.784C48.7075 28.4133 49.4542 25.384 50.9475 22.696C52.4835 19.9653 54.5742 17.832 57.2195 16.296C59.9075 14.7173 62.8942 13.928 66.1795 13.928C69.4648 13.928 72.4302 14.696 75.0755 16.232C77.7208 17.768 79.7902 19.9013 81.2835 22.632C82.8195 25.3627 83.5875 28.4133 83.5875 31.784C83.5875 35.24 82.7982 38.3333 81.2195 41.064C79.6835 43.7947 77.5715 45.928 74.8835 47.464C72.2382 49 69.3368 49.768 66.1795 49.768ZM53.8275 31.784C53.8275 34.2587 54.3608 36.4987 55.4275 38.504C56.5368 40.5093 58.0302 42.088 59.9075 43.24C61.8275 44.392 63.9182 44.968 66.1795 44.968C68.4408 44.968 70.5102 44.392 72.3875 43.24C74.2648 42.088 75.7368 40.5093 76.8035 38.504C77.9128 36.456 78.4675 34.216 78.4675 31.784C78.4675 29.352 77.9128 27.1547 76.8035 25.192C75.7368 23.1867 74.2648 21.608 72.3875 20.456C70.5102 19.304 68.4408 18.728 66.1795 18.728C63.9182 18.728 61.8275 19.304 59.9075 20.456C58.0302 21.608 56.5368 23.1867 55.4275 25.192C54.3608 27.1547 53.8275 29.352 53.8275 31.784ZM92.053 14.696H96.853V18.92C97.877 17.3413 99.2423 16.1253 100.949 15.272C102.698 14.376 104.618 13.928 106.709 13.928C109.098 13.928 111.274 14.4827 113.237 15.592C115.2 16.7013 116.736 18.2373 117.845 20.2C118.997 22.1627 119.573 24.3387 119.573 26.728V49H114.773V28.584C114.773 25.512 113.962 23.1013 112.341 21.352C110.72 19.6027 108.565 18.728 105.877 18.728C103.189 18.728 101.013 19.624 99.349 21.416C97.685 23.1653 96.853 25.5547 96.853 28.584V49H92.053V14.696ZM141.861 49.384C138.789 49.384 136.421 48.488 134.757 46.696C133.093 44.904 132.26 42.344 132.26 39.016V19.496H125.924V14.696H127.525C128.933 14.696 130.063 14.2267 130.917 13.288C131.813 12.3493 132.26 11.1333 132.26 9.64V6.76H137.061V14.696H144.613V19.496H137.061V39.016C137.061 40.8933 137.487 42.344 138.341 43.368C139.194 44.392 140.645 44.904 142.693 44.904C143.631 44.904 144.442 44.84 145.125 44.712V49.064C144.271 49.2773 143.183 49.384 141.861 49.384ZM162.848 49.768C160.715 49.768 158.773 49.3627 157.024 48.552C155.317 47.6987 153.973 46.5467 152.992 45.096C152.011 43.6027 151.52 41.9387 151.52 40.104C151.52 37.3307 152.416 34.984 154.208 33.064C156.043 31.144 158.795 29.8853 162.464 29.288L174.88 27.24V25.448C174.88 23.4 174.133 21.736 172.64 20.456C171.147 19.176 169.205 18.536 166.816 18.536C164.768 18.536 162.955 19.048 161.376 20.072C159.797 21.096 158.603 22.4613 157.792 24.168L153.44 21.8C154.421 19.5813 156.171 17.7253 158.688 16.232C161.248 14.696 163.957 13.928 166.816 13.928C169.291 13.928 171.509 14.4187 173.472 15.4C175.435 16.3813 176.949 17.7467 178.016 19.496C179.125 21.2453 179.68 23.2293 179.68 25.448V49H174.88V44.072C173.728 45.7787 172.085 47.1653 169.952 48.232C167.819 49.256 165.451 49.768 162.848 49.768ZM156.64 39.912C156.64 41.448 157.259 42.7493 158.496 43.816C159.733 44.8827 161.291 45.416 163.168 45.416C165.429 45.416 167.456 44.9253 169.248 43.944C171.04 42.9627 172.427 41.6187 173.408 39.912C174.389 38.1627 174.88 36.2427 174.88 34.152V31.592L163.616 33.448C161.227 33.832 159.456 34.6 158.304 35.752C157.195 36.8613 156.64 38.248 156.64 39.912ZM205.233 49.768C201.862 49.768 198.854 49 196.209 47.464C193.606 45.8853 191.58 43.7307 190.129 41C188.678 38.2693 187.953 35.1973 187.953 31.784C187.953 28.4133 188.678 25.3627 190.129 22.632C191.58 19.9013 193.606 17.768 196.209 16.232C198.854 14.696 201.862 13.928 205.233 13.928C208.39 13.928 211.313 14.76 214.001 16.424C216.689 18.0453 218.588 20.136 219.697 22.696L215.345 24.936C214.449 23.0587 213.084 21.5653 211.249 20.456C209.457 19.304 207.452 18.728 205.233 18.728C203.014 18.728 200.966 19.304 199.089 20.456C197.254 21.5653 195.782 23.1227 194.673 25.128C193.606 27.1333 193.073 29.3733 193.073 31.848C193.073 34.28 193.606 36.4987 194.673 38.504C195.782 40.5093 197.254 42.088 199.089 43.24C200.966 44.392 203.014 44.968 205.233 44.968C207.494 44.968 209.521 44.4133 211.313 43.304C213.105 42.152 214.449 40.5947 215.345 38.632L219.697 41C218.545 43.5173 216.625 45.608 213.937 47.272C211.249 48.936 208.348 49.768 205.233 49.768ZM241.048 49.384C237.976 49.384 235.608 48.488 233.944 46.696C232.28 44.904 231.448 42.344 231.448 39.016V19.496H225.112V14.696H226.712C228.12 14.696 229.251 14.2267 230.104 13.288C231 12.3493 231.448 11.1333 231.448 9.64V6.76H236.248V14.696H243.8V19.496H236.248V39.016C236.248 40.8933 236.675 42.344 237.528 43.368C238.381 44.392 239.832 44.904 241.88 44.904C242.819 44.904 243.629 44.84 244.312 44.712V49.064C243.459 49.2773 242.371 49.384 241.048 49.384ZM279.68 49.768C276.48 49.768 273.536 49 270.848 47.464C268.202 45.8853 266.09 43.7307 264.512 41C262.976 38.2267 262.208 35.1547 262.208 31.784C262.208 28.4133 262.954 25.384 264.448 22.696C265.984 19.9653 268.074 17.832 270.72 16.296C273.408 14.7173 276.394 13.928 279.68 13.928C282.965 13.928 285.93 14.696 288.576 16.232C291.221 17.768 293.29 19.9013 294.784 22.632C296.32 25.3627 297.088 28.4133 297.088 31.784C297.088 35.24 296.298 38.3333 294.72 41.064C293.184 43.7947 291.072 45.928 288.384 47.464C285.738 49 282.837 49.768 279.68 49.768ZM267.328 31.784C267.328 34.2587 267.861 36.4987 268.928 38.504C270.037 40.5093 271.53 42.088 273.408 43.24C275.328 44.392 277.418 44.968 279.68 44.968C281.941 44.968 284.01 44.392 285.888 43.24C287.765 42.088 289.237 40.5093 290.304 38.504C291.413 36.456 291.968 34.216 291.968 31.784C291.968 29.352 291.413 27.1547 290.304 25.192C289.237 23.1867 287.765 21.608 285.888 20.456C284.01 19.304 281.941 18.728 279.68 18.728C277.418 18.728 275.328 19.304 273.408 20.456C271.53 21.608 270.037 23.1867 268.928 25.192C267.861 27.1547 267.328 29.352 267.328 31.784ZM317.713 49.768C315.324 49.768 313.148 49.2133 311.185 48.104C309.222 46.952 307.665 45.352 306.513 43.304C305.404 41.256 304.849 38.9307 304.849 36.328V14.696H309.649V35.752C309.649 38.5253 310.46 40.7653 312.081 42.472C313.745 44.136 315.9 44.968 318.545 44.968C321.233 44.968 323.409 44.0933 325.073 42.344C326.737 40.552 327.569 38.1413 327.569 35.112V14.696H332.369V49H327.569V44.776C326.545 46.3547 325.158 47.592 323.409 48.488C321.702 49.3413 319.804 49.768 317.713 49.768ZM342.241 14.696H347.041V18.408C347.937 17.0853 349.153 16.0613 350.689 15.336C352.225 14.6107 354.017 14.248 356.065 14.248H358.241V19.048H355.233C352.715 19.048 350.71 19.8373 349.217 21.416C347.766 22.952 347.041 25.1067 347.041 27.88V49H342.241V14.696ZM378.26 19.496H371.413V14.696H378.26V11.624C378.26 9.32 378.773 7.336 379.797 5.672C380.863 4.008 382.271 2.74933 384.021 1.896C385.77 0.999997 387.669 0.551998 389.717 0.551998C390.826 0.551998 391.765 0.658665 392.533 0.871998V5.224C391.978 5.096 391.21 5.032 390.229 5.032C388.01 5.032 386.261 5.56533 384.981 6.632C383.701 7.656 383.061 9.32 383.061 11.624V14.696H391.445V19.496H383.061V49H378.26V19.496ZM399.241 14.696H404.041V18.408C404.937 17.0853 406.153 16.0613 407.689 15.336C409.225 14.6107 411.017 14.248 413.065 14.248H415.241V19.048H412.233C409.715 19.048 407.71 19.8373 406.217 21.416C404.766 22.952 404.041 25.1067 404.041 27.88V49H399.241V14.696ZM420.866 14.696H425.666V49H420.866V14.696ZM420.161 5.672C420.161 4.776 420.46 4.02933 421.058 3.432C421.655 2.83467 422.402 2.536 423.298 2.536C424.194 2.536 424.94 2.83467 425.538 3.432C426.135 4.02933 426.434 4.776 426.434 5.672C426.434 6.568 426.135 7.31467 425.538 7.912C424.94 8.50933 424.194 8.808 423.298 8.808C422.402 8.808 421.655 8.50933 421.058 7.912C420.46 7.31467 420.161 6.568 420.161 5.672ZM451.107 49.768C447.949 49.768 445.069 49 442.467 47.464C439.864 45.8853 437.816 43.7307 436.323 41C434.829 38.2267 434.083 35.1333 434.083 31.72C434.083 28.3493 434.787 25.32 436.195 22.632C437.645 19.9013 439.629 17.768 442.147 16.232C444.664 14.696 447.48 13.928 450.595 13.928C453.752 13.928 456.525 14.696 458.915 16.232C461.304 17.768 463.139 19.7947 464.419 22.312C465.741 24.8293 466.403 27.4747 466.403 30.248C466.403 31.3147 466.317 32.3387 466.147 33.32H439.139C439.181 35.7093 439.757 37.8213 440.867 39.656C442.019 41.448 443.491 42.8347 445.283 43.816C447.117 44.7973 449.059 45.288 451.107 45.288C455.587 45.288 459.085 43.1973 461.603 39.016L465.699 41.192C464.589 43.624 462.712 45.672 460.067 47.336C457.464 48.9573 454.477 49.768 451.107 49.768ZM461.219 28.84C461.219 26.8773 460.728 25.1067 459.747 23.528C458.808 21.9067 457.528 20.648 455.907 19.752C454.285 18.856 452.515 18.408 450.595 18.408C448.717 18.408 446.947 18.8347 445.283 19.688C443.661 20.5413 442.296 21.7573 441.187 23.336C440.12 24.9147 439.48 26.7493 439.267 28.84H461.219ZM474.866 14.696H479.666V18.92C480.69 17.3413 482.055 16.1253 483.762 15.272C485.511 14.376 487.431 13.928 489.522 13.928C491.911 13.928 494.087 14.4827 496.05 15.592C498.012 16.7013 499.548 18.2373 500.658 20.2C501.81 22.1627 502.386 24.3387 502.386 26.728V49H497.586V28.584C497.586 25.512 496.775 23.1013 495.154 21.352C493.532 19.6027 491.378 18.728 488.69 18.728C486.002 18.728 483.826 19.624 482.162 21.416C480.498 23.1653 479.666 25.5547 479.666 28.584V49H474.866V14.696ZM527.041 49.768C523.841 49.768 520.961 49 518.401 47.464C515.841 45.8853 513.814 43.7307 512.321 41C510.87 38.2693 510.145 35.2187 510.145 31.848C510.145 28.4773 510.87 25.4267 512.321 22.696C513.772 19.9653 515.777 17.832 518.337 16.296C520.94 14.7173 523.841 13.928 527.041 13.928C529.686 13.928 532.076 14.4613 534.209 15.528C536.385 16.552 538.177 18.0027 539.585 19.88V0.551998H544.385V49H539.585V43.432C538.262 45.4373 536.492 46.9947 534.273 48.104C532.097 49.2133 529.686 49.768 527.041 49.768ZM515.265 31.848C515.265 34.3227 515.777 36.5627 516.801 38.568C517.868 40.5307 519.318 42.088 521.153 43.24C522.988 44.392 525.036 44.968 527.297 44.968C529.558 44.968 531.628 44.392 533.505 43.24C535.382 42.088 536.854 40.5093 537.921 38.504C539.03 36.4987 539.585 34.28 539.585 31.848C539.585 29.416 539.03 27.1973 537.921 25.192C536.854 23.1867 535.382 21.608 533.505 20.456C531.628 19.304 529.558 18.728 527.297 18.728C525.036 18.728 522.988 19.304 521.153 20.456C519.318 21.608 517.868 23.1867 516.801 25.192C515.777 27.1547 515.265 29.3733 515.265 31.848ZM554.241 0.551998H559.041V49H554.241V0.551998ZM578.338 49.064L564.642 14.632H569.826L581.026 42.984L592.226 14.632H597.538L578.402 61.8H573.026L578.338 49.064ZM627.173 49.384C624.101 49.384 621.733 48.488 620.069 46.696C618.405 44.904 617.573 42.344 617.573 39.016V19.496H611.237V14.696H612.837C614.245 14.696 615.376 14.2267 616.229 13.288C617.125 12.3493 617.573 11.1333 617.573 9.64V6.76H622.373V14.696H629.925V19.496H622.373V39.016C622.373 40.8933 622.8 42.344 623.653 43.368C624.506 44.392 625.957 44.904 628.005 44.904C628.944 44.904 629.754 44.84 630.437 44.712V49.064C629.584 49.2773 628.496 49.384 627.173 49.384ZM653.232 49.768C650.074 49.768 647.194 49 644.592 47.464C641.989 45.8853 639.941 43.7307 638.448 41C636.954 38.2267 636.208 35.1333 636.208 31.72C636.208 28.3493 636.912 25.32 638.32 22.632C639.77 19.9013 641.754 17.768 644.272 16.232C646.789 14.696 649.605 13.928 652.72 13.928C655.877 13.928 658.65 14.696 661.04 16.232C663.429 17.768 665.264 19.7947 666.544 22.312C667.866 24.8293 668.528 27.4747 668.528 30.248C668.528 31.3147 668.442 32.3387 668.272 33.32H641.264C641.306 35.7093 641.882 37.8213 642.992 39.656C644.144 41.448 645.616 42.8347 647.408 43.816C649.242 44.7973 651.184 45.288 653.232 45.288C657.712 45.288 661.21 43.1973 663.728 39.016L667.824 41.192C666.714 43.624 664.837 45.672 662.192 47.336C659.589 48.9573 656.602 49.768 653.232 49.768ZM663.344 28.84C663.344 26.8773 662.853 25.1067 661.872 23.528C660.933 21.9067 659.653 20.648 658.032 19.752C656.41 18.856 654.64 18.408 652.72 18.408C650.842 18.408 649.072 18.8347 647.408 19.688C645.786 20.5413 644.421 21.7573 643.312 23.336C642.245 24.9147 641.605 26.7493 641.392 28.84H663.344ZM686.286 49.768C684.152 49.768 682.211 49.3627 680.462 48.552C678.755 47.6987 677.411 46.5467 676.43 45.096C675.448 43.6027 674.958 41.9387 674.958 40.104C674.958 37.3307 675.854 34.984 677.646 33.064C679.48 31.144 682.232 29.8853 685.902 29.288L698.318 27.24V25.448C698.318 23.4 697.571 21.736 696.078 20.456C694.584 19.176 692.643 18.536 690.253 18.536C688.206 18.536 686.392 19.048 684.814 20.072C683.235 21.096 682.04 22.4613 681.23 24.168L676.878 21.8C677.859 19.5813 679.608 17.7253 682.126 16.232C684.686 14.696 687.395 13.928 690.253 13.928C692.728 13.928 694.947 14.4187 696.91 15.4C698.872 16.3813 700.387 17.7467 701.454 19.496C702.563 21.2453 703.118 23.2293 703.118 25.448V49H698.318V44.072C697.166 45.7787 695.523 47.1653 693.39 48.232C691.256 49.256 688.888 49.768 686.286 49.768ZM680.078 39.912C680.078 41.448 680.696 42.7493 681.934 43.816C683.171 44.8827 684.728 45.416 686.606 45.416C688.867 45.416 690.894 44.9253 692.686 43.944C694.478 42.9627 695.864 41.6187 696.846 39.912C697.827 38.1627 698.318 36.2427 698.318 34.152V31.592L687.054 33.448C684.664 33.832 682.894 34.6 681.742 35.752C680.632 36.8613 680.078 38.248 680.078 39.912ZM712.991 14.696H717.791V18.92C718.815 17.3413 720.159 16.1253 721.823 15.272C723.529 14.376 725.364 13.928 727.327 13.928C729.673 13.928 731.828 14.5253 733.791 15.72C735.753 16.872 737.268 18.4507 738.335 20.456C739.359 18.3653 740.831 16.7653 742.751 15.656C744.713 14.504 746.847 13.928 749.151 13.928C751.455 13.928 753.567 14.504 755.487 15.656C757.449 16.7653 759.007 18.3013 760.159 20.264C761.353 22.184 761.951 24.3387 761.951 26.728V49H757.151V28.584C757.151 25.5547 756.34 23.1653 754.719 21.416C753.14 19.624 751.092 18.728 748.575 18.728C746.057 18.728 743.967 19.624 742.303 21.416C740.681 23.208 739.871 25.5973 739.871 28.584V49H735.071V28.584C735.071 25.5547 734.26 23.1653 732.639 21.416C731.06 19.624 729.012 18.728 726.495 18.728C723.977 18.728 721.887 19.624 720.223 21.416C718.601 23.208 717.791 25.5973 717.791 28.584V49H712.991V14.696Z" fill="url(#paint0_linear_583_19028)"/>
<defs>
<linearGradient id="paint0_linear_583_19028" x1="400.323" y1="22.5" x2="32.7531" y2="97.808" gradientUnits="userSpaceOnUse">
<stop stop-color="#0C9CD1"/>
<stop offset="1" stop-color="#123BCE"/>
</linearGradient>
</defs>
</svg>
