<svg width="68" height="68" viewBox="0 0 68 68" fill="none" xmlns="http://www.w3.org/2000/svg">
<g filter="url(#filter0_d_523_25375)">
<rect x="4" width="60" height="60" rx="30" fill="white"/>
<path d="M33.984 37.9018C33.7949 37.9018 33.6077 37.8645 33.4331 37.792C33.2585 37.7195 33.0999 37.6133 32.9664 37.4794L26.3213 30.8342C26.0606 30.5734 25.9099 30.2225 25.9002 29.8539C25.8906 29.4852 26.0227 29.1269 26.2695 28.8528L31.7127 22.8106C35.7235 18.1776 41.8618 15.1037 47.3338 15C47.7218 15.0086 48.0933 15.1588 48.3783 15.4224C48.6567 15.6989 48.8083 16.0752 48.8007 16.4669C48.6989 21.9389 45.625 28.0771 40.969 32.1072L34.9479 37.5312C34.684 37.7706 34.3403 37.9027 33.984 37.9018ZM29.3261 29.7648L34.0378 34.4765L39.0624 29.9491C42.6317 26.8598 45.1968 22.2384 45.792 18.0086C41.5642 18.6038 36.9447 21.167 33.8727 24.7171L29.3261 29.7648Z" fill="url(#paint0_linear_523_25375)"/>
<path d="M38.425 42.3638C38.2354 42.3641 38.0477 42.3267 37.8727 42.2539C37.6977 42.181 37.5389 42.0742 37.4055 41.9395L32.9645 37.4774C32.8273 37.3443 32.718 37.1851 32.643 37.0093C32.568 36.8334 32.5287 36.6444 32.5275 36.4532C32.5263 36.262 32.5632 36.0725 32.636 35.8957C32.7089 35.7189 32.8161 35.5584 32.9517 35.4235C33.0872 35.2887 33.2482 35.1821 33.4253 35.1102C33.6024 35.0382 33.7921 35.0022 33.9833 35.0043C34.1745 35.0064 34.3633 35.0465 34.5388 35.1224C34.7143 35.1982 34.8729 35.3083 35.0055 35.4461L38.1811 38.6371C39.4675 36.1219 39.6423 32.9923 39.6941 29.9568C39.7006 29.5792 39.8552 29.2193 40.1246 28.9547C40.3939 28.69 40.7565 28.5417 41.1341 28.5418H41.1591C41.3482 28.545 41.5348 28.5855 41.7083 28.6609C41.8817 28.7362 42.0386 28.8451 42.17 28.9811C42.3014 29.1171 42.4048 29.2777 42.4741 29.4537C42.5434 29.6297 42.5774 29.8176 42.5741 30.0067C42.505 33.9408 42.2112 38.424 39.5597 41.809C39.4249 41.9813 39.2527 42.1208 39.0561 42.2169C38.8596 42.313 38.6438 42.3632 38.425 42.3638ZM27.2736 31.1914C26.8931 31.1915 26.5279 31.041 26.2579 30.7728L21.7959 26.3318C21.6503 26.1884 21.5371 26.0156 21.4638 25.8249C21.3905 25.6341 21.3587 25.43 21.3707 25.226C21.3827 25.022 21.4382 24.823 21.5333 24.6421C21.6285 24.4613 21.7612 24.303 21.9226 24.1776C25.3075 21.528 29.7907 21.2304 33.7248 21.1613H33.7517C34.1336 21.1577 34.5013 21.306 34.7739 21.5735C35.0464 21.8411 35.2016 22.2059 35.2051 22.5878C35.2087 22.9697 35.0604 23.3374 34.7929 23.61C34.5253 23.8826 34.1605 24.0377 33.7786 24.0413C30.7431 24.095 27.6115 24.2698 25.0983 25.5562L28.2893 28.7318C28.491 28.933 28.6285 29.1895 28.6844 29.4688C28.7403 29.7481 28.7121 30.0377 28.6033 30.301C28.4946 30.5643 28.3102 30.7894 28.0735 30.9479C27.8369 31.1064 27.5585 31.1911 27.2736 31.1914ZM21.4407 44.28C21.2159 44.2807 20.994 44.2287 20.793 44.1281C20.592 44.0274 20.4174 43.881 20.2833 43.7006C20.1492 43.5201 20.0593 43.3107 20.0209 43.0892C19.9825 42.8677 19.9966 42.6403 20.0621 42.4253C20.5805 40.6992 21.9111 36.5558 23.0842 35.3808C24.6355 33.8314 27.3427 33.8256 28.8999 35.3808C29.6775 36.1584 30.1056 37.1914 30.1056 38.2896C30.1056 39.3878 29.6775 40.4208 28.8999 41.1984C27.7248 42.3715 23.5795 43.7021 21.8535 44.2186C21.7198 44.2599 21.5806 44.2806 21.4407 44.28ZM25.9911 37.057C25.8291 37.0565 25.6687 37.0882 25.5191 37.1501C25.3695 37.2121 25.2336 37.3031 25.1194 37.4179C24.8122 37.7482 24.2554 39.0538 23.7063 40.5763C25.2269 40.0272 26.5325 39.4704 26.8666 39.1613C26.9819 39.0475 27.0735 38.9119 27.136 38.7625C27.1985 38.613 27.2307 38.4526 27.2307 38.2906C27.2307 38.1285 27.1985 37.9681 27.136 37.8187C27.0735 37.6692 26.9819 37.5336 26.8666 37.4198C26.7517 37.3047 26.6152 37.2134 26.465 37.1512C26.3147 37.0889 26.1537 37.0569 25.9911 37.057Z" fill="url(#paint1_linear_523_25375)"/>
</g>
<defs>
<filter id="filter0_d_523_25375" x="0" y="0" width="68" height="68" filterUnits="userSpaceOnUse" color-interpolation-filters="sRGB">
<feFlood flood-opacity="0" result="BackgroundImageFix"/>
<feColorMatrix in="SourceAlpha" type="matrix" values="0 0 0 0 0 0 0 0 0 0 0 0 0 0 0 0 0 0 127 0" result="hardAlpha"/>
<feOffset dy="4"/>
<feGaussianBlur stdDeviation="2"/>
<feComposite in2="hardAlpha" operator="out"/>
<feColorMatrix type="matrix" values="0 0 0 0 0 0 0 0 0 0 0 0 0 0 0 0 0 0 0.25 0"/>
<feBlend mode="normal" in2="BackgroundImageFix" result="effect1_dropShadow_523_25375"/>
<feBlend mode="normal" in="SourceGraphic" in2="effect1_dropShadow_523_25375" result="shape"/>
</filter>
<linearGradient id="paint0_linear_523_25375" x1="35.1222" y1="29.64" x2="20.8214" y2="29.9428" gradientUnits="userSpaceOnUse">
<stop stop-color="#0C9CD1"/>
<stop offset="1" stop-color="#123BCE"/>
</linearGradient>
<linearGradient id="paint1_linear_523_25375" x1="35.1222" y1="29.64" x2="20.8214" y2="29.9428" gradientUnits="userSpaceOnUse">
<stop stop-color="#0C9CD1"/>
<stop offset="1" stop-color="#123BCE"/>
</linearGradient>
</defs>
</svg>
