<svg width="68" height="68" viewBox="0 0 68 68" fill="none" xmlns="http://www.w3.org/2000/svg">
<g filter="url(#filter0_d_523_25388)">
<rect x="4" width="60" height="60" rx="30" fill="white"/>
<path fill-rule="evenodd" clip-rule="evenodd" d="M31.4289 16H37.5454C40.2785 16 42.4433 16 44.1375 16.2277C45.8811 16.4622 47.2924 16.9561 48.4053 18.069C49.5183 19.182 50.0122 20.5932 50.2466 22.3368C50.4744 24.0311 50.4744 26.1958 50.4744 28.9289V31.9872C50.4744 32.6032 49.975 33.1026 49.359 33.1026C48.743 33.1026 48.2436 32.6032 48.2436 31.9872V31.6154H20.7308V31.9872C20.7308 34.823 20.7331 36.8376 20.9386 38.3659C21.1398 39.8622 21.517 40.7242 22.1464 41.3536C22.7758 41.983 23.6378 42.3602 25.1341 42.5614C26.6624 42.7669 28.677 42.7692 31.5128 42.7692H35.9744C36.5904 42.7692 37.0897 43.2686 37.0897 43.8846C37.0897 44.5006 36.5904 45 35.9744 45H31.4289C28.6958 45 26.5311 45 24.8368 44.7723C23.0932 44.5378 21.682 44.0439 20.569 42.931C19.4561 41.818 18.9622 40.4068 18.7277 38.6632C18.5 36.9689 18.5 34.8042 18.5 32.0711V28.9289C18.5 26.1958 18.5 24.0311 18.7277 22.3368C18.9622 20.5932 19.4561 19.182 20.569 18.069C21.682 16.9561 23.0932 16.4622 24.8368 16.2277C26.5311 16 28.6958 16 31.4289 16ZM20.7308 29.3846H48.2436V29.0128C48.2436 26.177 48.2412 24.1624 48.0357 22.6341C47.8346 21.1378 47.4573 20.2758 46.8279 19.6464C46.1985 19.017 45.3365 18.6398 43.8403 18.4386C42.312 18.2331 40.2973 18.2308 37.4615 18.2308H31.5128C28.677 18.2308 26.6624 18.2331 25.1341 18.4386C23.6378 18.6398 22.7758 19.017 22.1464 19.6464C21.517 20.2758 21.1398 21.1378 20.9386 22.6341C20.7331 24.1624 20.7308 26.177 20.7308 29.0128V29.3846ZM25.5641 21.2051C26.1801 21.2051 26.6795 21.7045 26.6795 22.3205V25.2949C26.6795 25.9109 26.1801 26.4103 25.5641 26.4103C24.9481 26.4103 24.4487 25.9109 24.4487 25.2949V22.3205C24.4487 21.7045 24.9481 21.2051 25.5641 21.2051ZM30.0256 21.2051C30.6416 21.2051 31.141 21.7045 31.141 22.3205V25.2949C31.141 25.9109 30.6416 26.4103 30.0256 26.4103C29.4096 26.4103 28.9103 25.9109 28.9103 25.2949V22.3205C28.9103 21.7045 29.4096 21.2051 30.0256 21.2051ZM35.6026 23.8077C35.6026 23.1917 36.1019 22.6923 36.7179 22.6923H43.4103C44.0263 22.6923 44.5256 23.1917 44.5256 23.8077C44.5256 24.4237 44.0263 24.9231 43.4103 24.9231H36.7179C36.1019 24.9231 35.6026 24.4237 35.6026 23.8077ZM44.4017 36.0769C43.4342 36.0769 42.5427 36.9266 42.5427 38.1109C42.5427 38.1928 42.5471 38.2732 42.5556 38.3521C42.7345 38.436 42.9044 38.5354 43.0638 38.6484C43.5663 39.0046 43.685 39.7008 43.3288 40.2033C42.9726 40.7059 42.2764 40.8246 41.7738 40.4684C41.654 40.3835 41.5223 40.3256 41.3847 40.297C41.319 40.2833 41.2505 40.276 41.1795 40.276C40.6227 40.276 40.0641 40.7732 40.0641 41.5226C40.0641 42.272 40.6227 42.7692 41.1795 42.7692H46.3846C47.3521 42.7692 48.2436 41.9195 48.2436 40.7353C48.2436 39.8068 47.6826 39.0653 46.9739 38.8057C46.7895 38.7381 46.5919 38.7014 46.3846 38.7014C46.1732 38.7014 45.9718 38.7396 45.7841 38.8098C45.2072 39.0257 44.5644 38.733 44.3485 38.1561C44.1326 37.5792 44.4253 36.9365 45.0022 36.7205C45.1931 36.6491 45.3905 36.5921 45.593 36.5506C45.2623 36.2503 44.8404 36.0769 44.4017 36.0769ZM48.3489 36.9935C47.8846 35.2147 46.3304 33.8462 44.4017 33.8462C42.0838 33.8462 40.312 35.8165 40.312 38.1109C40.312 38.1278 40.3121 38.1447 40.3123 38.1616C38.8525 38.5638 37.8333 39.9576 37.8333 41.5226C37.8333 43.3822 39.2722 45 41.1795 45H46.3846C48.7025 45 50.4744 43.0297 50.4744 40.7353C50.4744 39.1455 49.6338 37.7271 48.3489 36.9935ZM25.5641 34.5897C26.1801 34.5897 26.6795 35.0891 26.6795 35.7051V38.6795C26.6795 39.2955 26.1801 39.7949 25.5641 39.7949C24.9481 39.7949 24.4487 39.2955 24.4487 38.6795V35.7051C24.4487 35.0891 24.9481 34.5897 25.5641 34.5897ZM30.0256 34.5897C30.6416 34.5897 31.141 35.0891 31.141 35.7051V38.6795C31.141 39.2955 30.6416 39.7949 30.0256 39.7949C29.4096 39.7949 28.9103 39.2955 28.9103 38.6795V35.7051C28.9103 35.0891 29.4096 34.5897 30.0256 34.5897Z" fill="url(#paint0_linear_523_25388)"/>
</g>
<defs>
<filter id="filter0_d_523_25388" x="0" y="0" width="68" height="68" filterUnits="userSpaceOnUse" color-interpolation-filters="sRGB">
<feFlood flood-opacity="0" result="BackgroundImageFix"/>
<feColorMatrix in="SourceAlpha" type="matrix" values="0 0 0 0 0 0 0 0 0 0 0 0 0 0 0 0 0 0 127 0" result="hardAlpha"/>
<feOffset dy="4"/>
<feGaussianBlur stdDeviation="2"/>
<feComposite in2="hardAlpha" operator="out"/>
<feColorMatrix type="matrix" values="0 0 0 0 0 0 0 0 0 0 0 0 0 0 0 0 0 0 0.25 0"/>
<feBlend mode="normal" in2="BackgroundImageFix" result="effect1_dropShadow_523_25388"/>
<feBlend mode="normal" in="SourceGraphic" in2="effect1_dropShadow_523_25388" result="shape"/>
</filter>
<linearGradient id="paint0_linear_523_25388" x1="35.2885" y1="30.5" x2="19.414" y2="30.8767" gradientUnits="userSpaceOnUse">
<stop stop-color="#0C9CD1"/>
<stop offset="1" stop-color="#123BCE"/>
</linearGradient>
</defs>
</svg>
