<svg width="25" height="25" viewBox="0 0 25 25" fill="none" xmlns="http://www.w3.org/2000/svg">
<path d="M12.5002 2.0835C18.2533 2.0835 22.9168 6.74704 22.9168 12.5002C22.9168 18.2533 18.2533 22.9168 12.5002 22.9168C6.74704 22.9168 2.0835 18.2533 2.0835 12.5002C2.0835 6.74704 6.74704 2.0835 12.5002 2.0835ZM12.5002 4.16683C10.29 4.16683 8.17041 5.0448 6.60761 6.60761C5.0448 8.17041 4.16683 10.29 4.16683 12.5002C4.16683 14.7103 5.0448 16.8299 6.60761 18.3927C8.17041 19.9555 10.29 20.8335 12.5002 20.8335C14.7103 20.8335 16.8299 19.9555 18.3927 18.3927C19.9555 16.8299 20.8335 14.7103 20.8335 12.5002C20.8335 10.29 19.9555 8.17041 18.3927 6.60761C16.8299 5.0448 14.7103 4.16683 12.5002 4.16683ZM12.5002 6.25016C12.7553 6.2502 13.0016 6.34387 13.1922 6.51341C13.3829 6.68295 13.5047 6.91657 13.5345 7.16995L13.5418 7.29183V12.0689L16.3616 14.8887C16.5484 15.0762 16.6569 15.3277 16.665 15.5922C16.6731 15.8568 16.5801 16.1144 16.4051 16.313C16.2301 16.5115 15.986 16.6359 15.7226 16.661C15.4591 16.6861 15.196 16.61 14.9866 16.4481L14.8887 16.3616L11.7637 13.2366C11.6018 13.0746 11.4978 12.8637 11.4679 12.6366L11.4585 12.5002V7.29183C11.4585 7.01556 11.5682 6.75061 11.7636 6.55526C11.9589 6.35991 12.2239 6.25016 12.5002 6.25016Z" fill="white"/>
</svg>
