<svg width="71" height="72" viewBox="0 0 71 72" fill="none" xmlns="http://www.w3.org/2000/svg">
<g filter="url(#filter0_d_523_6667)">
<path d="M35.625 11C49.4325 11 60.625 22.1925 60.625 36C60.625 49.8075 49.4325 61 35.625 61C21.8175 61 10.625 49.8075 10.625 36C10.625 22.1925 21.8175 11 35.625 11ZM35.625 16C30.3207 16 25.2336 18.1071 21.4829 21.8579C17.7321 25.6086 15.625 30.6957 15.625 36C15.625 41.3043 17.7321 46.3914 21.4829 50.1421C25.2336 53.8929 30.3207 56 35.625 56C40.9293 56 46.0164 53.8929 49.7671 50.1421C53.5179 46.3914 55.625 41.3043 55.625 36C55.625 30.6957 53.5179 25.6086 49.7671 21.8579C46.0164 18.1071 40.9293 16 35.625 16ZM35.625 21C36.2373 21.0001 36.8283 21.2249 37.2859 21.6318C37.7435 22.0387 38.0359 22.5994 38.1075 23.2075L38.125 23.5V34.965L44.8925 41.7325C45.3409 42.1824 45.6012 42.7861 45.6206 43.421C45.64 44.0558 45.417 44.6743 44.9969 45.1507C44.5768 45.6271 43.9911 45.9258 43.3588 45.986C42.7265 46.0462 42.095 45.8635 41.5925 45.475L41.3575 45.2675L33.8575 37.7675C33.4689 37.3786 33.2194 36.8725 33.1475 36.3275L33.125 36V23.5C33.125 22.837 33.3884 22.2011 33.8572 21.7322C34.3261 21.2634 34.962 21 35.625 21Z" fill="#2B3990"/>
</g>
<defs>
<filter id="filter0_d_523_6667" x="0.325" y="0.7" width="70.6" height="70.6" filterUnits="userSpaceOnUse" color-interpolation-filters="sRGB">
<feFlood flood-opacity="0" result="BackgroundImageFix"/>
<feColorMatrix in="SourceAlpha" type="matrix" values="0 0 0 0 0 0 0 0 0 0 0 0 0 0 0 0 0 0 127 0" result="hardAlpha"/>
<feOffset/>
<feGaussianBlur stdDeviation="5.15"/>
<feComposite in2="hardAlpha" operator="out"/>
<feColorMatrix type="matrix" values="0 0 0 0 0.600833 0 0 0 0 0.636527 0 0 0 0 0.858333 0 0 0 1 0"/>
<feBlend mode="normal" in2="BackgroundImageFix" result="effect1_dropShadow_523_6667"/>
<feBlend mode="normal" in="SourceGraphic" in2="effect1_dropShadow_523_6667" result="shape"/>
</filter>
</defs>
</svg>
