<svg width="70" height="64" viewBox="0 0 70 64" fill="none" xmlns="http://www.w3.org/2000/svg">
<g filter="url(#filter0_d_523_6681)">
<path d="M50.125 31.9999C52.1141 31.9999 54.0218 31.2273 55.4283 29.852C56.8348 28.4767 57.625 26.6115 57.625 24.6666V19.7777C57.625 17.8327 56.8348 15.9675 55.4283 14.5922C54.0218 13.217 52.1141 12.4443 50.125 12.4443H20.125C18.1359 12.4443 16.2282 13.217 14.8217 14.5922C13.4152 15.9675 12.625 17.8327 12.625 19.7777V24.6666C12.625 26.6115 13.4152 28.4767 14.8217 29.852C16.2282 31.2273 18.1359 31.9999 20.125 31.9999M50.125 31.9999H20.125M50.125 31.9999C52.1141 31.9999 54.0218 32.7725 55.4283 34.1478C56.8348 35.523 57.625 37.3883 57.625 39.3332V44.2221C57.625 46.167 56.8348 48.0323 55.4283 49.4076C54.0218 50.7828 52.1141 51.5554 50.125 51.5554H20.125C18.1359 51.5554 16.2282 50.7828 14.8217 49.4076C13.4152 48.0323 12.625 46.167 12.625 44.2221V39.3332C12.625 37.3883 13.4152 35.523 14.8217 34.1478C16.2282 32.7725 18.1359 31.9999 20.125 31.9999M22.625 22.2221V22.2466M22.625 41.7777V41.8021" stroke="#2B3990" stroke-width="4" stroke-linecap="round" stroke-linejoin="round"/>
</g>
<defs>
<filter id="filter0_d_523_6681" x="0.325" y="0.144336" width="69.6" height="63.7113" filterUnits="userSpaceOnUse" color-interpolation-filters="sRGB">
<feFlood flood-opacity="0" result="BackgroundImageFix"/>
<feColorMatrix in="SourceAlpha" type="matrix" values="0 0 0 0 0 0 0 0 0 0 0 0 0 0 0 0 0 0 127 0" result="hardAlpha"/>
<feOffset/>
<feGaussianBlur stdDeviation="5.15"/>
<feColorMatrix type="matrix" values="0 0 0 0 0.600833 0 0 0 0 0.636527 0 0 0 0 0.858333 0 0 0 1 0"/>
<feBlend mode="normal" in2="BackgroundImageFix" result="effect1_dropShadow_523_6681"/>
<feBlend mode="normal" in="SourceGraphic" in2="effect1_dropShadow_523_6681" result="shape"/>
</filter>
</defs>
</svg>
