<svg width="28" height="28" viewBox="0 0 28 28" fill="none" xmlns="http://www.w3.org/2000/svg">
<path d="M25.2558 18.8124C25.3713 19.013 25.4027 19.2511 25.3431 19.4748C25.2834 19.6984 25.1376 19.8893 24.9375 20.0057L14.4375 26.1307C14.3037 26.2087 14.1516 26.2498 13.9967 26.2498C13.8418 26.2498 13.6897 26.2087 13.5559 26.1307L3.05594 20.0057C2.85873 19.8872 2.71613 19.6958 2.65902 19.4729C2.6019 19.25 2.63487 19.0136 2.75078 18.8149C2.86669 18.6161 3.05622 18.471 3.27833 18.411C3.50044 18.351 3.73725 18.3808 3.9375 18.4941L14 24.3621L24.0625 18.4941C24.2631 18.3786 24.5012 18.3472 24.7249 18.4068C24.9485 18.4665 25.1394 18.6123 25.2558 18.8124ZM24.0625 13.2441L14 19.1121L3.9375 13.2441C3.73827 13.1449 3.50872 13.1254 3.29558 13.1895C3.08245 13.2535 2.90174 13.3964 2.79024 13.5891C2.67874 13.7817 2.64482 14.0095 2.69541 14.2263C2.74599 14.443 2.87726 14.6323 3.0625 14.7557L13.5625 20.8807C13.6963 20.9587 13.8484 20.9998 14.0033 20.9998C14.1582 20.9998 14.3103 20.9587 14.4441 20.8807L24.9441 14.7557C25.0449 14.6986 25.1334 14.6221 25.2045 14.5306C25.2755 14.439 25.3277 14.3343 25.3579 14.2224C25.3881 14.1106 25.3958 13.9938 25.3806 13.879C25.3653 13.7641 25.3274 13.6534 25.269 13.5533C25.2107 13.4532 25.133 13.3657 25.0405 13.2959C24.9481 13.2261 24.8426 13.1753 24.7304 13.1465C24.6182 13.1178 24.5013 13.1116 24.3867 13.1283C24.272 13.1451 24.1618 13.1844 24.0625 13.2441ZM2.625 8.74991C2.62535 8.59666 2.66594 8.44618 2.74272 8.31354C2.8195 8.1809 2.92978 8.07076 3.0625 7.99413L13.5625 1.86913C13.6963 1.79111 13.8484 1.75 14.0033 1.75C14.1582 1.75 14.3103 1.79111 14.4441 1.86913L24.9441 7.99413C25.0761 8.07119 25.1857 8.18152 25.2619 8.31413C25.3381 8.44674 25.3781 8.59699 25.3781 8.74991C25.3781 8.90284 25.3381 9.05309 25.2619 9.18569C25.1857 9.3183 25.0761 9.42863 24.9441 9.50569L14.4441 15.6307C14.3103 15.7087 14.1582 15.7498 14.0033 15.7498C13.8484 15.7498 13.6963 15.7087 13.5625 15.6307L3.0625 9.50569C2.92978 9.42907 2.8195 9.31892 2.74272 9.18628C2.66594 9.05365 2.62535 8.90317 2.625 8.74991ZM5.23688 8.74991L14 13.8621L22.7631 8.74991L14 3.63773L5.23688 8.74991Z" fill="#132DCE"/>
</svg>
