<svg width="28" height="28" viewBox="0 0 28 28" fill="none" xmlns="http://www.w3.org/2000/svg">
<path d="M13.9998 25.6668C11.2971 24.9863 9.06562 23.4354 7.3055 21.0142C5.54539 18.5929 4.66573 15.9049 4.6665 12.9502V5.8335L13.9998 2.3335L23.3332 5.8335V12.9502C23.3332 15.9057 22.4531 18.5941 20.693 21.0153C18.9329 23.4366 16.7018 24.9871 13.9998 25.6668ZM13.9998 23.2168C16.0221 22.5752 17.6943 21.2918 19.0165 19.3668C20.3387 17.4418 20.9998 15.3029 20.9998 12.9502V7.43766L13.9998 4.81266L6.99984 7.43766V12.9502C6.99984 15.3029 7.66095 17.4418 8.98317 19.3668C10.3054 21.2918 11.9776 22.5752 13.9998 23.2168Z" fill="#132DCE"/>
</svg>
