<svg width="512" height="50" viewBox="0 0 512 50" fill="none" xmlns="http://www.w3.org/2000/svg">
<path d="M19.132 49.768C15.3773 49.768 12.1133 49.064 9.34 47.656C6.60933 46.248 4.476 44.4773 2.94 42.344C1.404 40.168 0.422667 37.9067 -0.00399995 35.56L8.188 33.384C8.828 35.9867 10.108 38.0133 12.028 39.464C13.948 40.9147 16.3587 41.64 19.26 41.64C21.4787 41.64 23.2707 41.0853 24.636 39.976C26.044 38.8667 26.748 37.544 26.748 36.008C26.748 34.6 26.236 33.384 25.212 32.36C24.2307 31.2933 22.8867 30.5893 21.18 30.248L14.012 28.84C10.2147 28.1147 7.228 26.472 5.052 23.912C2.876 21.352 1.788 18.2373 1.788 14.568C1.788 12.008 2.51333 9.66133 3.964 7.528C5.45733 5.352 7.42 3.64533 9.852 2.408C12.3267 1.17066 14.9507 0.551998 17.724 0.551998C21.2653 0.551998 24.2733 1.14933 26.748 2.344C29.2227 3.53866 31.1427 5.05333 32.508 6.888C33.916 8.68 34.8547 10.5787 35.324 12.584L27.196 15.144C26.3 12.84 25.084 11.1973 23.548 10.216C22.012 9.192 20.0707 8.68 17.724 8.68C16.4013 8.68 15.2067 8.95733 14.14 9.512C13.116 10.0667 12.3053 10.792 11.708 11.688C11.1533 12.5413 10.876 13.416 10.876 14.312C10.876 15.72 11.3453 16.9573 12.284 18.024C13.2227 19.048 14.524 19.7093 16.188 20.008L22.972 21.48C27.1107 22.376 30.3107 24.0827 32.572 26.6C34.8333 29.0747 35.964 32.04 35.964 35.496C35.964 37.9707 35.2813 40.296 33.916 42.472C32.5507 44.648 30.588 46.4187 28.028 47.784C25.5107 49.1067 22.5453 49.768 19.132 49.768ZM59.6095 49.768C56.1962 49.768 53.0815 48.9787 50.2655 47.4C47.4922 45.7787 45.3162 43.5813 43.7375 40.808C42.1588 38.0347 41.3695 34.9413 41.3695 31.528C41.3695 28.1147 42.1588 25.0427 43.7375 22.312C45.3162 19.5387 47.4922 17.3627 50.2655 15.784C53.0388 14.2053 56.1535 13.416 59.6095 13.416C63.3215 13.416 66.6282 14.376 69.5295 16.296C72.4308 18.1733 74.4148 20.648 75.4815 23.72L68.1855 26.92C67.5028 25.128 66.3935 23.72 64.8575 22.696C63.3215 21.6293 61.5722 21.096 59.6095 21.096C57.8175 21.096 56.1962 21.544 54.7455 22.44C53.2948 23.336 52.1428 24.5947 51.2895 26.216C50.4788 27.7947 50.0735 29.5867 50.0735 31.592C50.0735 33.5973 50.4788 35.4107 51.2895 37.032C52.1428 38.6107 53.2948 39.848 54.7455 40.744C56.1962 41.64 57.8175 42.088 59.6095 42.088C61.6148 42.088 63.3642 41.576 64.8575 40.552C66.3935 39.4853 67.5028 38.0347 68.1855 36.2L75.4815 39.528C74.4575 42.5573 72.4735 45.032 69.5295 46.952C66.6282 48.8293 63.3215 49.768 59.6095 49.768ZM92.1515 49.768C88.4822 49.768 85.5595 48.872 83.3835 47.08C81.2502 45.288 80.1835 42.856 80.1835 39.784C80.1835 36.84 81.1862 34.408 83.1915 32.488C85.1968 30.568 88.2048 29.288 92.2155 28.648L102.584 26.984V25.832C102.584 24.296 101.986 23.0373 100.792 22.056C99.6395 21.0747 98.1035 20.584 96.1835 20.584C94.3915 20.584 92.7915 21.0747 91.3835 22.056C90.0182 22.9947 89.0155 24.2533 88.3755 25.832L81.5275 22.504C82.5515 19.7733 84.4288 17.576 87.1595 15.912C89.8902 14.248 93.0048 13.416 96.5035 13.416C99.3195 13.416 101.816 13.9493 103.992 15.016C106.21 16.04 107.917 17.512 109.112 19.432C110.349 21.3093 110.968 23.4427 110.968 25.832V49H103.032V45.288C100.301 48.2747 96.6742 49.768 92.1515 49.768ZM88.8875 39.464C88.8875 40.6587 89.3355 41.6187 90.2315 42.344C91.1275 43.0267 92.2795 43.368 93.6875 43.368C96.2902 43.368 98.4235 42.5573 100.088 40.936C101.752 39.272 102.584 37.224 102.584 34.792V33.384L93.8155 34.856C92.1515 35.1973 90.9142 35.752 90.1035 36.52C89.2928 37.2453 88.8875 38.2267 88.8875 39.464ZM118.717 0.551998H127.101V49H118.717V0.551998ZM145.402 49.768C141.732 49.768 138.81 48.872 136.634 47.08C134.5 45.288 133.434 42.856 133.434 39.784C133.434 36.84 134.436 34.408 136.442 32.488C138.447 30.568 141.455 29.288 145.466 28.648L155.834 26.984V25.832C155.834 24.296 155.236 23.0373 154.042 22.056C152.89 21.0747 151.354 20.584 149.434 20.584C147.642 20.584 146.042 21.0747 144.634 22.056C143.268 22.9947 142.266 24.2533 141.626 25.832L134.778 22.504C135.802 19.7733 137.679 17.576 140.41 15.912C143.14 14.248 146.255 13.416 149.753 13.416C152.57 13.416 155.066 13.9493 157.242 15.016C159.46 16.04 161.167 17.512 162.362 19.432C163.599 21.3093 164.218 23.4427 164.218 25.832V49H156.282V45.288C153.551 48.2747 149.924 49.768 145.402 49.768ZM142.138 39.464C142.138 40.6587 142.586 41.6187 143.482 42.344C144.378 43.0267 145.53 43.368 146.938 43.368C149.54 43.368 151.674 42.5573 153.338 40.936C155.002 39.272 155.834 37.224 155.834 34.792V33.384L147.066 34.856C145.402 35.1973 144.164 35.752 143.354 36.52C142.543 37.2453 142.138 38.2267 142.138 39.464ZM190.975 49.768C188.713 49.768 186.601 49.3627 184.639 48.552C182.719 47.7413 181.119 46.5893 179.839 45.096V49H171.967V0.551998H180.351V17.704C181.588 16.3387 183.124 15.2933 184.958 14.568C186.793 13.8 188.82 13.416 191.039 13.416C194.281 13.416 197.247 14.2267 199.935 15.848C202.623 17.4267 204.735 19.6027 206.271 22.376C207.807 25.1493 208.575 28.2213 208.575 31.592C208.575 34.9627 207.807 38.0347 206.271 40.808C204.735 43.5813 202.623 45.7787 199.935 47.4C197.289 48.9787 194.303 49.768 190.975 49.768ZM180.351 31.592C180.351 33.5973 180.756 35.4107 181.567 37.032C182.42 38.6107 183.572 39.848 185.023 40.744C186.516 41.64 188.18 42.088 190.015 42.088C192.873 42.088 195.22 41.1067 197.055 39.144C198.932 37.1387 199.871 34.6213 199.871 31.592C199.871 29.6293 199.444 27.8587 198.591 26.28C197.737 24.6587 196.564 23.4 195.071 22.504C193.577 21.5653 191.892 21.096 190.015 21.096C188.18 21.096 186.516 21.544 185.023 22.44C183.572 23.336 182.42 24.5947 181.567 26.216C180.756 27.7947 180.351 29.5867 180.351 31.592ZM214.967 0.551998H223.351V49H214.967V0.551998ZM247.604 49.768C244.105 49.768 240.99 48.9573 238.26 47.336C235.572 45.7147 233.46 43.5173 231.924 40.744C230.43 37.9707 229.684 34.8987 229.684 31.528C229.684 28.1147 230.43 25.0427 231.924 22.312C233.46 19.5387 235.529 17.3627 238.132 15.784C240.777 14.2053 243.721 13.416 246.964 13.416C250.462 13.416 253.492 14.184 256.052 15.72C258.612 17.2133 260.553 19.2613 261.876 21.864C263.241 24.4667 263.924 27.3253 263.924 30.44C263.924 31.8907 263.774 33.064 263.476 33.96H238.388C238.644 36.52 239.625 38.568 241.332 40.104C243.038 41.64 245.15 42.408 247.668 42.408C249.545 42.408 251.145 42.024 252.468 41.256C253.833 40.4453 254.921 39.336 255.732 37.928L262.516 41.256C261.449 43.816 259.572 45.8853 256.884 47.464C254.196 49 251.102 49.768 247.604 49.768ZM254.964 27.56C254.75 25.4267 253.918 23.6987 252.468 22.376C251.017 21.0107 249.182 20.328 246.964 20.328C244.83 20.328 243.017 20.968 241.524 22.248C240.03 23.4853 239.049 25.256 238.58 27.56H254.964Z" fill="url(#paint0_linear_1047_6239)"/>
<path d="M299.382 49.768C295.627 49.768 292.363 49.064 289.59 47.656C286.859 46.248 284.726 44.4773 283.19 42.344C281.654 40.168 280.673 37.9067 280.246 35.56L288.438 33.384C289.078 35.9867 290.358 38.0133 292.278 39.464C294.198 40.9147 296.609 41.64 299.51 41.64C301.729 41.64 303.521 41.0853 304.886 39.976C306.294 38.8667 306.998 37.544 306.998 36.008C306.998 34.6 306.486 33.384 305.462 32.36C304.481 31.2933 303.137 30.5893 301.43 30.248L294.262 28.84C290.465 28.1147 287.478 26.472 285.302 23.912C283.126 21.352 282.038 18.2373 282.038 14.568C282.038 12.008 282.763 9.66133 284.214 7.528C285.707 5.352 287.67 3.64533 290.102 2.408C292.577 1.17066 295.201 0.551998 297.974 0.551998C301.515 0.551998 304.523 1.14933 306.998 2.344C309.473 3.53866 311.393 5.05333 312.758 6.888C314.166 8.68 315.105 10.5787 315.574 12.584L307.446 15.144C306.55 12.84 305.334 11.1973 303.798 10.216C302.262 9.192 300.321 8.68 297.974 8.68C296.651 8.68 295.457 8.95733 294.39 9.512C293.366 10.0667 292.555 10.792 291.958 11.688C291.403 12.5413 291.126 13.416 291.126 14.312C291.126 15.72 291.595 16.9573 292.534 18.024C293.473 19.048 294.774 19.7093 296.438 20.008L303.222 21.48C307.361 22.376 310.561 24.0827 312.822 26.6C315.083 29.0747 316.214 32.04 316.214 35.496C316.214 37.9707 315.531 40.296 314.166 42.472C312.801 44.648 310.838 46.4187 308.278 47.784C305.761 49.1067 302.795 49.768 299.382 49.768ZM339.604 49.768C336.105 49.768 332.99 48.9573 330.26 47.336C327.572 45.7147 325.46 43.5173 323.924 40.744C322.43 37.9707 321.684 34.8987 321.684 31.528C321.684 28.1147 322.43 25.0427 323.924 22.312C325.46 19.5387 327.529 17.3627 330.132 15.784C332.777 14.2053 335.721 13.416 338.964 13.416C342.462 13.416 345.492 14.184 348.052 15.72C350.612 17.2133 352.553 19.2613 353.876 21.864C355.241 24.4667 355.924 27.3253 355.924 30.44C355.924 31.8907 355.774 33.064 355.476 33.96H330.388C330.644 36.52 331.625 38.568 333.332 40.104C335.038 41.64 337.15 42.408 339.668 42.408C341.545 42.408 343.145 42.024 344.468 41.256C345.833 40.4453 346.921 39.336 347.732 37.928L354.516 41.256C353.449 43.816 351.572 45.8853 348.884 47.464C346.196 49 343.102 49.768 339.604 49.768ZM346.964 27.56C346.75 25.4267 345.918 23.6987 344.468 22.376C343.017 21.0107 341.182 20.328 338.964 20.328C336.83 20.328 335.017 20.968 333.524 22.248C332.03 23.4853 331.049 25.256 330.58 27.56H346.964ZM362.279 14.184H370.151V19.048C371.004 17.1707 372.22 15.8267 373.799 15.016C375.378 14.2053 377.298 13.8 379.559 13.8H381.607V21.224H378.599C376.21 21.224 374.29 21.9707 372.839 23.464C371.388 24.9573 370.663 27.0053 370.663 29.608V49H362.279V14.184ZM383.017 14.184H392.169L400.425 36.904L408.681 14.184H417.833L404.137 49H396.713L383.017 14.184ZM438.354 49.768C434.855 49.768 431.74 48.9573 429.01 47.336C426.322 45.7147 424.21 43.5173 422.674 40.744C421.18 37.9707 420.434 34.8987 420.434 31.528C420.434 28.1147 421.18 25.0427 422.674 22.312C424.21 19.5387 426.279 17.3627 428.882 15.784C431.527 14.2053 434.471 13.416 437.714 13.416C441.212 13.416 444.242 14.184 446.802 15.72C449.362 17.2133 451.303 19.2613 452.626 21.864C453.991 24.4667 454.674 27.3253 454.674 30.44C454.674 31.8907 454.524 33.064 454.226 33.96H429.138C429.394 36.52 430.375 38.568 432.082 40.104C433.788 41.64 435.9 42.408 438.418 42.408C440.295 42.408 441.895 42.024 443.218 41.256C444.583 40.4453 445.671 39.336 446.482 37.928L453.266 41.256C452.199 43.816 450.322 45.8853 447.634 47.464C444.946 49 441.852 49.768 438.354 49.768ZM445.714 27.56C445.5 25.4267 444.668 23.6987 443.218 22.376C441.767 21.0107 439.932 20.328 437.714 20.328C435.58 20.328 433.767 20.968 432.274 22.248C430.78 23.4853 429.799 25.256 429.33 27.56H445.714ZM461.029 14.184H468.901V19.048C469.754 17.1707 470.97 15.8267 472.549 15.016C474.128 14.2053 476.048 13.8 478.309 13.8H480.357V21.224H477.349C474.96 21.224 473.04 21.9707 471.589 23.464C470.138 24.9573 469.413 27.0053 469.413 29.608V49H461.029V14.184ZM498.023 49.704C494.524 49.704 491.431 48.872 488.743 47.208C486.097 45.544 484.22 43.2613 483.111 40.36L489.319 37.16C490.257 39.0373 491.495 40.5093 493.031 41.576C494.609 42.6 496.337 43.112 498.215 43.112C499.836 43.112 501.095 42.792 501.991 42.152C502.929 41.4693 503.399 40.552 503.399 39.4C503.399 38.4187 503.015 37.608 502.247 36.968C501.479 36.2853 500.476 35.8373 499.239 35.624L493.543 34.664C490.599 33.896 488.316 32.5947 486.695 30.76C485.116 28.8827 484.327 26.6853 484.327 24.168C484.327 22.0773 484.881 20.2213 485.991 18.6C487.1 16.936 488.636 15.656 490.599 14.76C492.604 13.864 494.865 13.416 497.383 13.416C500.583 13.416 503.399 14.184 505.831 15.72C508.263 17.2133 510.033 19.304 511.143 21.992L504.935 25.192C504.252 23.6987 503.207 22.504 501.799 21.608C500.391 20.712 498.833 20.264 497.127 20.264C495.719 20.264 494.588 20.584 493.735 21.224C492.924 21.864 492.519 22.696 492.519 23.72C492.519 25.5973 493.927 26.856 496.743 27.496L502.311 28.52C505.255 29.3307 507.537 30.6533 509.159 32.488C510.78 34.3227 511.591 36.4987 511.591 39.016C511.591 41.1067 511.015 42.9627 509.863 44.584C508.753 46.2053 507.175 47.464 505.127 48.36C503.079 49.256 500.711 49.704 498.023 49.704Z" fill="#090909"/>
<defs>
<linearGradient id="paint0_linear_1047_6239" x1="268.957" y1="22.5" x2="16.8918" y2="57.1298" gradientUnits="userSpaceOnUse">
<stop stop-color="#0C9CD1"/>
<stop offset="1" stop-color="#123BCE"/>
</linearGradient>
</defs>
</svg>
