<svg width="29" height="32" viewBox="0 0 29 32" fill="none" xmlns="http://www.w3.org/2000/svg">
<path d="M5.16671 26.7336C4.52504 26.7336 3.97593 26.5053 3.51937 26.0487C3.06282 25.5922 2.83415 25.0427 2.83337 24.4002V10.4002C2.83337 9.75856 3.06204 9.20945 3.51937 8.75289C3.97671 8.29634 4.52582 8.06767 5.16671 8.06689H23.8334C24.475 8.06689 25.0245 8.29556 25.4819 8.75289C25.9392 9.21023 26.1675 9.75934 26.1667 10.4002V24.4002C26.1667 25.0419 25.9384 25.5914 25.4819 26.0487C25.0253 26.5061 24.4758 26.7343 23.8334 26.7336H5.16671ZM14.5 18.5669L5.16671 12.7336V24.4002H23.8334V12.7336L14.5 18.5669ZM14.5 16.2336L23.8334 10.4002H5.16671L14.5 16.2336ZM5.16671 12.7336V10.4002V24.4002V12.7336Z" fill="#2B3990"/>
</svg>
